# xmcd
#
# Track frame offsets: 
#        150
#        14587
#        29392
#        42952
#        59880
#        70725
#        85325
#        100425
#        115412
#        128482
#        145757
#        159455
#        174130
#        190210
#
# Disc length: 2759 seconds
#
# Revision: 1
# Processed by: cddbd v1.5.2PL0 Copyright (c) Steve Scherf et al.
# Submitted via: ExactAudioCopy v0.99pb5
#
DISCID=c00ac50e
DTITLE=Asie Payton - Just Do Me Right
DYEAR=2002
DGENRE=Blues
TTITLE0=Back to the Bridge
TTITLE1=Do Me Right
TTITLE2=1000 Years
TTITLE3=I Got a Friend
TTITLE4=Need My Help
TTITLE5=Livin' In So Much Pain
TTITLE6=You Got Me Doin' Things
TTITLE7=Why'd You Do It
TTITLE8=Nobody But You
TTITLE9=Lose My Happy Home
TTITLE10=You Don't Want Me
TTITLE11=Watch Yourself
TTITLE12=Asie's Story
TTITLE13=Back to the Bridge (2002)
EXTD=Posthumous
EXTT0=
EXTT1=
EXTT2=
EXTT3=
EXTT4=
EXTT5=
EXTT6=
EXTT7=
EXTT8=
EXTT9=
EXTT10=
EXTT11=
EXTT12=
EXTT13=
PLAYORDER=
